<svg xmlns="http://www.w3.org/2000/svg" viewBox="0 0 158.58 35.45"><defs><style>.cls-1,.cls-2{fill:#feed01;}.cls-2{fill-rule:evenodd;}.cls-3{fill:#fff;}</style></defs><g id="Layer_2" data-name="Layer 2"><g id="logo-10"><path class="cls-1" d="M27.78,14.67c3.14,0,3.85,1.37,3.85,3.06s-.86,3.1-3.83,3.1S24,19.61,24,17.73,24.92,14.67,27.78,14.67Z"/><path class="cls-1" d="M60.58,14.67c3.14,0,3.84,1.37,3.84,3.06s-.85,3.1-3.83,3.1-3.81-1.22-3.81-3.1S57.71,14.67,60.58,14.67Z"/><path class="cls-2" d="M0,35.45V0H158.58V35.45Zm75.58-2h81V2h-81ZM27.8,23.85c5.57,0,7.91-2.41,7.91-6.16s-2.64-6.08-7.91-6.08-7.93,2.46-7.93,6.08C19.87,21.77,22.74,23.85,27.8,23.85Zm-19.37-12V23.67H19.67V20.53H12.5V11.88ZM48.3,23.67l-.11-1.15a7.19,7.19,0,0,1-4.68,1.33c-2.51,0-4.6-.75-5.77-2.27a6.24,6.24,0,0,1-1.11-3.79,5.82,5.82,0,0,1,1.14-3.67c1.19-1.47,3.34-2.45,6.53-2.45,3.68,0,5.85,1.13,6.78,3a4.22,4.22,0,0,1,.34,1.41H47.53a1.55,1.55,0,0,0-.53-.75,4.13,4.13,0,0,0-2.62-.68,4,4,0,0,0-1.62.15,3.78,3.78,0,0,0-1.42.8,3.27,3.27,0,0,0-.61,2.2,3.32,3.32,0,0,0,.57,2.12,3.84,3.84,0,0,0,1.44.86,3.93,3.93,0,0,0,1.67.18,4.38,4.38,0,0,0,3.09-1,1.89,1.89,0,0,0,.37-.8H43.69V16.68h7.83v7Zm12.29.18c5.57,0,7.92-2.41,7.92-6.16s-2.65-6.08-7.92-6.08-7.93,2.46-7.93,6.08C52.66,21.77,55.53,23.85,60.59,23.85Z"/><path class="cls-3" d="M82.43,23.62V11.83h2.9V23.62Z"/><path class="cls-3" d="M100.22,18.7c-.73,1-2,1.4-3.78,1.41l-5.36,0v3.53H88.24V11.83h8.2a4.61,4.61,0,0,1,2,.21,4.67,4.67,0,0,1,1.7,1,4.31,4.31,0,0,1,.88,3A4.21,4.21,0,0,1,100.22,18.7ZM97.9,14.85c-.3-.45-1-.7-2.05-.7H91.06v3.59h4.76c1.17,0,1.79-.24,2.08-.7A2.08,2.08,0,0,0,98.11,16,2.41,2.41,0,0,0,97.9,14.85Z"/><path class="cls-3" d="M109.34,23.8c-5.35,0-7-2-7-4h3c0,1,1.33,1.71,4.08,1.71s3.46-.48,3.46-1.26-.54-1.14-3.08-1.42c-.5-.05-1.86-.21-2.37-.29-3.6-.41-5-1.47-5-3.38s2-3.53,6.43-3.53c4.77,0,6.6,1.88,6.6,3.83h-3c0-1-1.12-1.56-3.78-1.56s-3.32.38-3.32,1.11.6,1,3.5,1.35c.66.09,2.13.26,2.54.3,3.06.32,4.44,1.43,4.44,3.4C115.9,22.42,113.8,23.8,109.34,23.8Z"/><path class="cls-3" d="M124.44,23.79c-3.91,0-6.47-1.55-6.47-4.8V11.83h2.87V19c0,1.48,1.22,2.47,3.72,2.47,2.27,0,3.62-.93,3.62-2.47v-7.2H131v7.42C131,22.21,128.65,23.79,124.44,23.79Z"/><path class="cls-3" d="M146.56,23.62V15.75l-3.68,7.87h-2.79l-3.57-7.87v7.87h-2.7V11.83h3.65l4.06,9,4.14-9h3.6V23.62Z"/></g></g></svg>